<svg xmlns="http://www.w3.org/2000/svg" xmlns:xlink="http://www.w3.org/1999/xlink" version="1.1" id="Layer_1" x="0px" y="0px" width="72.989px" height="64.942px" viewBox="0 0 72.989 64.942" enable-background="new 0 0 72.989 64.942" xml:space="preserve">
<path fill="#B52126" d="M63.821,20.963c2.96-2.959,4.166-6.95,3.57-10.558l-9.113,9.113L50.22,11.46l9.338-9.339  C55.807,1.293,51.55,2.465,48.437,5.58c-3.497,3.497-4.016,7.895-2.258,11.668L33.441,29.985l5.973,5.973l12.738-12.738  C55.925,24.977,60.324,24.46,63.821,20.963z"/>
<path fill="#B52126" d="M10.413,43.604c-2.96,2.96-4.167,6.95-3.571,10.558l9.114-9.113l8.058,8.059l-9.338,9.338  c3.75,0.828,8.006-0.342,11.122-3.458c3.497-3.497,4.014-7.895,2.257-11.667l12.738-12.739l-5.973-5.973L22.08,41.347  C18.308,39.589,13.91,40.106,10.413,43.604z"/>
<polygon fill="#B52126" points="67.54,52.916 26.998,14.13 36.879,3.611 36.348,2.762 35.499,2.762 21.047,5.312 5.321,19.975   12.122,26.881 19.984,19.869 60.363,59.502 "/>
</svg>